<svg xmlns="http://www.w3.org/2000/svg" xmlns:xlink="http://www.w3.org/1999/xlink" viewBox="0,0,256,256" width="100px" height="100px" fill-rule="nonzero"><g fill-opacity="0" fill="#ffffff" fill-rule="nonzero" stroke="none" stroke-width="1" stroke-linecap="butt" stroke-linejoin="miter" stroke-miterlimit="10" stroke-dasharray="" stroke-dashoffset="0" font-family="none" font-weight="none" font-size="none" text-anchor="none" style="mix-blend-mode: normal"><path d="M0,256v-256h256v256z" id="bgRectangle"></path></g><g fill="none" fill-rule="nonzero" stroke="none" stroke-width="1" stroke-linecap="butt" stroke-linejoin="miter" stroke-miterlimit="10" stroke-dasharray="" stroke-dashoffset="0" font-family="none" font-weight="none" font-size="none" text-anchor="none" style="mix-blend-mode: normal"><g transform="scale(2.56,2.56)"><path d="M69.575,80h-39c-6.6,0 -12,-5.4 -12,-12v-39c0,-6.6 5.4,-12 12,-12h39c6.6,0 12,5.4 12,12v39c0,6.6 -5.4,12 -12,12z" fill="#6475a5"></path><path d="M69.575,81h-39c-7.168,0 -13,-5.832 -13,-13v-39c0,-7.168 5.832,-13 13,-13h39c7.168,0 13,5.832 13,13v39c0,7.168 -5.832,13 -13,13zM30.575,18c-6.065,0 -11,4.935 -11,11v39c0,6.065 4.935,11 11,11h39c6.065,0 11,-4.935 11,-11v-39c0,-6.065 -4.935,-11 -11,-11z" fill="#1f212b"></path><path d="M77.075,46.5v18.663c0,5.685 -4.652,10.337 -10.337,10.337h-33.326c-5.685,0 -10.337,-4.652 -10.337,-10.337v-33.326c0,-5.685 4.652,-10.337 10.337,-10.337h33.663" fill="#6475a5"></path><path d="M66.738,76h-33.326c-5.976,0 -10.837,-4.861 -10.837,-10.837v-33.326c0,-5.976 4.861,-10.837 10.837,-10.837h33.663c0.276,0 0.5,0.224 0.5,0.5c0,0.276 -0.224,0.5 -0.5,0.5h-33.663c-5.424,0 -9.837,4.413 -9.837,9.837v33.326c0,5.424 4.413,9.837 9.837,9.837h33.326c5.424,0 9.837,-4.413 9.837,-9.837v-18.663c0,-0.276 0.224,-0.5 0.5,-0.5c0.276,0 0.5,0.224 0.5,0.5v18.663c0,5.976 -4.862,10.837 -10.837,10.837z" fill="#1f212b"></path><path d="M77.075,45c-0.276,0 -0.5,-0.224 -0.5,-0.5v-4c0,-0.276 0.224,-0.5 0.5,-0.5c0.276,0 0.5,0.224 0.5,0.5v4c0,0.276 -0.224,0.5 -0.5,0.5zM77.075,39c-0.276,0 -0.5,-0.224 -0.5,-0.5v-2c0,-0.276 0.224,-0.5 0.5,-0.5c0.276,0 0.5,0.224 0.5,0.5v2c0,0.276 -0.224,0.5 -0.5,0.5z" fill="#1f212b"></path><path d="M45.075,39.137c0,0.859 0,4.363 0,4.363h-3v5h3v16h7v-16h4.113c0,0 0.385,-2.387 0.571,-5c-0.536,0 -5.684,0 -5.684,0c0,0 0,-3.146 0,-3.7c0,-0.553 0.725,-1.3 1.442,-1.3c0.717,0 3.123,0 4.558,0c0,-0.788 0,-3.493 0,-6c-1.907,0 -4.081,0 -5.035,0c-7.133,0.008 -6.965,5.777 -6.965,6.637z" fill="#fdfcee"></path><path d="M52.075,65h-7c-0.276,0 -0.5,-0.224 -0.5,-0.5v-15.5h-2.5c-0.276,0 -0.5,-0.224 -0.5,-0.5v-5c0,-0.276 0.224,-0.5 0.5,-0.5h2.5v-3.863h0.5l-0.5,-0.057c-0.008,-2.167 0.612,-3.892 1.843,-5.128c1.286,-1.292 3.178,-1.95 5.621,-1.952h5.036c0.276,0 0.5,0.224 0.5,0.5v6c0,0.276 -0.224,0.5 -0.5,0.5h-4.558c-0.47,0 -0.942,0.549 -0.942,0.8v3.2h5.184c0.139,0 0.271,0.058 0.366,0.159c0.094,0.102 0.143,0.238 0.133,0.376c-0.186,2.605 -0.573,5.02 -0.577,5.044c-0.04,0.243 -0.249,0.421 -0.494,0.421h-3.612v15.5c0,0.276 -0.224,0.5 -0.5,0.5zM45.575,64h6v-15.5c0,-0.276 0.224,-0.5 0.5,-0.5h3.683c0.106,-0.721 0.32,-2.282 0.461,-4h-5.144c-0.276,0 -0.5,-0.224 -0.5,-0.5v-3.7c0,-0.875 0.998,-1.8 1.942,-1.8h4.058v-5h-4.535c-2.168,0.002 -3.821,0.56 -4.914,1.658c-1.036,1.041 -1.558,2.527 -1.551,4.419v0.06v4.363c0,0.276 -0.224,0.5 -0.5,0.5h-2.5v4h2.5c0.276,0 0.5,0.224 0.5,0.5z" fill="#1f212b"></path></g></g><g fill="none" fill-rule="nonzero" stroke="none" stroke-width="1" stroke-linecap="butt" stroke-linejoin="miter" stroke-miterlimit="10" stroke-dasharray="" stroke-dashoffset="0" font-family="none" font-weight="none" font-size="none" text-anchor="none" style="mix-blend-mode: normal"><g transform="translate(145.32,161.32) scale(2.56,2.56)" id="overlay"><path transform="translate(15.5,15.5)" d="M-14.5,0c0,-8.00813 6.49187,-14.5 14.5,-14.5c8.00813,0 14.5,6.49187 14.5,14.5c0,8.00813 -6.49187,14.5 -14.5,14.5c-8.00813,0 -14.5,-6.49187 -14.5,-14.5z" fill="#60be92"></path><g fill="#1f212b"><path d="M15.5,31c-8.547,0 -15.5,-6.953 -15.5,-15.5c0,-8.547 6.953,-15.5 15.5,-15.5c8.547,0 15.5,6.953 15.5,15.5c0,8.547 -6.953,15.5 -15.5,15.5zM15.5,2c-7.444,0 -13.5,6.056 -13.5,13.5c0,7.444 6.056,13.5 13.5,13.5c7.444,0 13.5,-6.056 13.5,-13.5c0,-7.444 -6.056,-13.5 -13.5,-13.5z"></path></g><g fill="#1f212b"><path d="M13.5,21c-0.113,0 -0.228,-0.039 -0.32,-0.116l-6,-5c-0.212,-0.177 -0.24,-0.492 -0.063,-0.705c0.178,-0.213 0.492,-0.239 0.704,-0.064l5.665,4.722l10.679,-9.708c0.204,-0.184 0.521,-0.171 0.706,0.034c0.186,0.205 0.171,0.521 -0.034,0.707l-11,10c-0.096,0.087 -0.216,0.13 -0.337,0.13z"></path></g></g></g></svg>